<svg xmlns="http://www.w3.org/2000/svg" width="29.406" height="26" viewBox="0 0 29.406 26">
  <path id="icon" class="cls-1" d="M383.006,1642.84a6.908,6.908,0,1,0,6.9-7.17,6.642,6.642,0,0,0-2.235.39c1.553-9.24,8.5-15.21,2.06-10.3-7.141,5.44-6.735,16.86-6.727,17.07A0.016,0.016,0,0,0,383.006,1642.84Zm15.187,0a6.908,6.908,0,1,0,6.9-7.17,6.642,6.642,0,0,0-2.235.39c1.553-9.24,8.5-15.21,2.06-10.3-7.141,5.44-6.735,16.86-6.727,17.07A0.016,0.016,0,0,0,398.193,1642.84Z" transform="translate(-382.594 -1624)"/>
</svg>
